# xmcd CD database file
#
# Track frame offsets:
#	150
#	25707
#	43545
#
# Disc length: 735 seconds
#
# Revision: 1
# Processed by: cddbd v1.5PL3 Copyright (c) Steve Scherf et al.
# Submitted via: CDex 1.50beta10
#
DISCID=1802dd03
DTITLE=MONGOL800 - ヨロコビノウタ
DYEAR=2003
DGENRE=Rock
TTITLE0=冬の思い出
TTITLE1=ヨロコビノウタ
TTITLE2=ROMEO+JULIET
EXTD=YEAR: 2003
EXTT0=
EXTT1=
EXTT2=
PLAYORDER=
